<svg id="Layer_2" height="512" viewBox="0 0 512 512" width="512" xmlns="http://www.w3.org/2000/svg"><g><g><g><g><path d="m40 318h-30l12-22h18z" fill="#466089"/></g><g><path d="m425 254h-50v34h-222v136h322v-120z" fill="#ffe352"/></g><g><path d="m198 288 40-184h137v184z" fill="#6e83b7"/></g><g><path d="m222.815 268 31.304-144h100.881v144z" fill="#80d6fb"/></g><g><path d="m498.318 395.773-7.179-2.393c-.297-7.858-1.559-15.464-3.666-22.715l6.602-1.351c3.601-.737 5.421-4.785 3.584-7.968l-7.786-13.485c-1.159-2.007-3.472-3.048-5.743-2.583l-7.404 1.515c-4.118-6.526-9.014-12.507-14.56-17.821l5.06-4.487c2.75-2.438 2.303-6.854-.88-8.692l-13.485-7.786c-2.007-1.159-4.531-.903-6.265.634l-5.645 5.006c-6.733-3.558-13.946-6.32-21.521-8.171l2.13-6.39c1.162-3.487-1.433-7.087-5.108-7.087h-15.571c-2.318 0-4.375 1.483-5.108 3.682l-2.393 7.179c-7.858.297-15.464 1.559-22.715 3.666l-1.351-6.602c-.737-3.601-4.785-5.421-7.967-3.584l-13.485 7.786c-2.007 1.159-3.048 3.472-2.583 5.743l1.515 7.404c-6.526 4.118-12.507 9.014-17.821 14.56l-4.487-5.06c-2.438-2.75-6.854-2.303-8.692.88l-7.786 13.485c-1.159 2.007-.903 4.531.634 6.265l5.006 5.645c-3.558 6.733-6.32 13.946-8.171 21.52l-6.39-2.13c-3.487-1.162-7.087 1.433-7.087 5.108v15.571c0 2.318 1.483 4.375 3.682 5.108l7.179 2.393c.297 7.858 1.559 15.464 3.666 22.715l-6.602 1.351c-3.601.737-5.421 4.785-3.584 7.968l7.786 13.485c1.159 2.007 3.472 3.048 5.743 2.583l7.404-1.515c4.118 6.526 9.014 12.507 14.56 17.821l-5.06 4.487c-2.75 2.438-2.303 6.854.88 8.692l13.485 7.786c2.007 1.159 4.531.903 6.265-.634l5.645-5.006c6.733 3.558 13.946 6.32 21.521 8.171l-2.13 6.39c-1.162 3.487 1.433 7.087 5.108 7.087h15.571c2.318 0 4.375-1.483 5.108-3.682l2.393-7.179c7.858-.297 15.464-1.559 22.715-3.666l1.351 6.602c.737 3.601 4.785 5.421 7.967 3.584l13.485-7.786c2.007-1.159 3.048-3.472 2.583-5.743l-1.515-7.404c6.526-4.118 12.507-9.014 17.821-14.56l4.487 5.06c2.438 2.75 6.854 2.303 8.692-.88l7.786-13.485c1.159-2.007.903-4.531-.634-6.265l-5.006-5.645c3.558-6.733 6.32-13.946 8.171-21.52l6.39 2.13c3.487 1.162 7.087-1.433 7.087-5.108v-15.571c0-2.318-1.483-4.375-3.682-5.108z" fill="#6e83b7"/></g><g><circle cx="397" cy="397" fill="#466089" r="49.35"/></g><g><g><path d="m227.265 423.088-5.333-1.778c-.221-5.837-1.158-11.488-2.723-16.874l4.904-1.004c2.675-.547 4.027-3.554 2.662-5.919l-5.784-10.018c-.861-1.491-2.579-2.264-4.266-1.919l-5.5 1.125c-3.059-4.848-6.696-9.291-10.816-13.238l3.759-3.333c2.043-1.811 1.711-5.092-.654-6.457l-10.018-5.784c-1.491-.861-3.366-.671-4.654.471l-4.193 3.719c-5.001-2.643-10.36-4.695-15.987-6.07l1.582-4.747c.863-2.59-1.065-5.265-3.795-5.265h-11.567c-1.722 0-3.25 1.102-3.795 2.735l-1.778 5.333c-5.837.221-11.488 1.158-16.874 2.723l-1.004-4.904c-.547-2.675-3.554-4.027-5.919-2.662l-10.018 5.784c-1.491.861-2.264 2.579-1.919 4.266l1.125 5.5c-4.848 3.059-9.291 6.696-13.238 10.816l-3.333-3.759c-1.811-2.043-5.092-1.711-6.457.654l-5.784 10.018c-.861 1.491-.671 3.366.471 4.654l3.719 4.194c-2.643 5.001-4.695 10.36-6.07 15.987l-4.747-1.582c-2.59-.863-5.265 1.065-5.265 3.795v11.567c0 1.722 1.102 3.25 2.735 3.795l5.333 1.778c.221 5.837 1.158 11.488 2.723 16.874l-4.904 1.004c-2.675.547-4.027 3.554-2.662 5.919l5.784 10.018c.861 1.491 2.579 2.264 4.266 1.919l5.5-1.125c3.059 4.848 6.696 9.291 10.816 13.238l-3.759 3.333c-2.043 1.811-1.711 5.092.654 6.457l10.018 5.784c1.491.861 3.366.671 4.654-.471l4.193-3.719c5.001 2.643 10.36 4.695 15.987 6.07l-1.582 4.747c-.863 2.59 1.065 5.265 3.795 5.265h11.567c1.722 0 3.25-1.102 3.795-2.735l1.778-5.333c5.837-.221 11.488-1.158 16.874-2.723l1.004 4.904c.547 2.675 3.554 4.027 5.919 2.662l10.018-5.784c1.491-.861 2.264-2.579 1.919-4.266l-1.125-5.5c4.848-3.059 9.291-6.696 13.238-10.816l3.333 3.759c1.811 2.043 5.092 1.711 6.457-.654l5.784-10.018c.861-1.491.671-3.366-.471-4.654l-3.719-4.194c2.643-5.001 4.695-10.36 6.07-15.987l4.747 1.582c2.59.863 5.265-1.065 5.265-3.795v-11.567c0-1.722-1.102-3.25-2.735-3.795z" fill="#6e83b7"/></g><g><circle cx="152" cy="424" fill="#466089" r="36"/></g></g><g><path d="m28 318h85.999l24.001-48v-86l-24-24h-30v82h-18z" fill="#6e83b7"/></g><g><path d="m156 223h-60v32h46l75 75v10c0 8.837 7.163 16 16 16s16-7.163 16-16v-24z" fill="#ffb236"/></g><g><circle cx="233" cy="340" fill="#6e83b7" r="6"/></g></g><g><path d="m236 384h10v34h-10z" fill="#ffb236"/></g><g><path d="m256 384h10v34h-10z" fill="#ffb236"/></g><g><path d="m276 384h10v34h-10z" fill="#ffb236"/></g></g><g><path d="m405 54h30l-30 200h-30z" fill="#6e83b7"/></g><g><path d="m476.1 128-11.1-74h-30l11.1 74z" fill="#466089"/></g><g><path d="m492 128h-52l-10 10v47l10 10h26v35l-14 16h24l26-36v-72z" fill="#d3d3d3"/></g><g><path d="m398 10h74v44h-74z" fill="#ffe352"/></g></g></svg>