<svg id="Layer_1" enable-background="new 0 0 256 256" height="512" viewBox="0 0 256 256" width="512" xmlns="http://www.w3.org/2000/svg"><g><g><g><path d="m69.572 48.065h71.366c2.761 0 5 2.239 5 5v4.111c0 2.761-2.239 5-5 5h-71.366c-2.761 0-5-2.239-5-5v-4.111c0-2.762 2.239-5 5-5z" fill="#7d7b79"/></g><g><path d="m105.34 157.493c-2.66 10.93-12.52 19.04-24.26 19.04-17.3 0-29.23-17.14-23.62-33.14 1.87-5.52 5.99-10.79 11.86-13.89 13.09-7.08 30.24-1 35.38 13.89 1.6 4.65 1.75 9.65.64 14.1z" fill="#7d7b79"/></g><g><path d="m165.28 176.533c-11.75 0-21.61-8.11-24.26-19.04-1.2-4.81-.88-9.76.65-14.1.02-.08.05-.16.08-.24 4.44-12.75 18.6-19.48 30.95-15.46 5.45 1.68 10.09 5.18 13.23 9.78 11.27 16.45-.54 39.06-20.65 39.06z" fill="#7d7b79"/><path d="m141.02 157.493h-35.68c1.11-4.45.96-9.45-.64-14.1h36.97c-1.53 4.34-1.85 9.29-.65 14.1z" fill="#efefef"/></g><g><path d="m172.7 103.913v23.78c-12.352-4.021-26.513 2.708-30.95 15.46-.03.08-.06.16-.08.24h-36.97c-5.14-14.89-22.29-20.97-35.38-13.89 0-6.752 0-60 0-67.32h68.98l7.64 36.89z" fill="#f0c020"/></g><g><path d="m69.32 87.163v42.34c-5.87 3.1-9.99 8.37-11.86 13.89h-1.81c-2.76 0-5-2.24-5-5v-46.23c0-2.76 2.24-5 5-5z" fill="#efefef"/></g><g><path d="m133.167 100.379v30.238h-20.657c-.649-.979-1.352-1.926-2.086-2.842-6.833-8.419-17.115-13.687-28.333-13.985v-38.838h45.807z" fill="#efefef"/></g><path d="m38.73 84.223 3.57-10.62c1.91-5.68-1.31-11.82-7.08-13.47-5.76-1.65-11.73 1.85-13.11 7.69l-15.37 64.95 14.72 2.92 11.13-33.17 18.06 23.45v-29.23z" fill="#f0c020"/><g><path d="m40.9 129.063-2.87 26.86h-30.57l-2.87-23.57 2.15.42 14.72 2.92 8.36 1.66z" fill="#7d7b79"/></g><g><path d="m93.975 107.296v-12.318c0-3.866-3.134-7-7-7h-4.883v25.811c11.218.298 21.499 5.566 28.333 13.985v-13.478c0-3.866-3.134-7-7-7z" fill="#7d7b79"/></g><g><path d="m246.092 176.532h-30.362c-2.761 0-5-2.239-5-5v-45.303c0-2.761 2.239-5 5-5h6.036c2.526 0 4.656 1.885 4.963 4.393l3.901 31.869z" fill="#7d7b79"/></g><g><path d="m229.291 171.032h-10.561c-1.381 0-2.5-1.119-2.5-2.5v-24.439c0-1.381 1.119-2.5 2.5-2.5s2.5 1.119 2.5 2.5v21.939h8.061c1.381 0 2.5 1.119 2.5 2.5s-1.119 2.5-2.5 2.5zm-10.561-34.439c-1.381 0-2.5-1.119-2.5-2.5v-4.863c0-1.381 1.119-2.5 2.5-2.5s2.5 1.119 2.5 2.5v4.863c0 1.38-1.119 2.5-2.5 2.5z" fill="#efefef"/></g><g><path d="m92.83 151.541c0 6.482-5.269 11.761-11.75 11.761-6.493 0-11.761-5.279-11.761-11.761 0-6.458 5.24-11.761 11.761-11.761 6.497 0 11.75 5.295 11.75 11.761z" fill="#fff"/></g><g><path d="m92.83 151.541c0 6.482-5.269 11.761-11.75 11.761-6.493 0-11.761-5.279-11.761-11.761 0-6.458 5.24-11.761 11.761-11.761 6.497 0 11.75 5.295 11.75 11.761z" fill="#efefef"/></g><g><path d="m177.038 151.541c0 6.492-5.279 11.761-11.761 11.761s-11.761-5.268-11.761-11.761c0-6.564 5.363-11.75 11.761-11.75 6.433 0 11.761 5.217 11.761 11.75z" fill="#fff"/></g><g><path d="m177.038 151.541c0 6.492-5.279 11.761-11.761 11.761s-11.761-5.268-11.761-11.761c0-6.564 5.363-11.75 11.761-11.75 6.433 0 11.761 5.217 11.761 11.75z" fill="#efefef"/></g><g><path d="m47.69 203.475c-3.871-1.279-7.869-2.397-10.114-12.066-2.067 8.906-5.38 10.502-10.114 12.066 7.722 2.551 8.887 6.776 10.114 12.066 2.116-9.119 5.616-10.58 10.114-12.066z" fill="#f0c020"/></g><g><path d="m192.924 52.519c-3.871-1.279-7.869-2.397-10.114-12.066-2.067 8.906-5.38 10.502-10.114 12.066 7.722 2.551 8.887 6.776 10.114 12.066 2.116-9.119 5.616-10.58 10.114-12.066z" fill="#f0c020"/></g><g><path d="m225.817 76.838c-3.871-1.279-7.869-2.397-10.114-12.066-2.067 8.906-5.38 10.502-10.114 12.066 7.722 2.551 8.887 6.776 10.114 12.066 2.116-9.119 5.616-10.58 10.114-12.066z" fill="#f0c020"/></g><g><path d="m210.73 133.48v23.255l-24.8-19.262v-31.251z" fill="#efefef"/></g><g><path d="m185.93 94.153v43.32c-3.14-4.6-7.78-8.1-13.23-9.78v-33.54c0-2.76 2.23-5 5-5h3.23c2.76 0 5 2.24 5 5z" fill="#7d7b79"/></g></g><g><path d="m30.973 84.634.666-2.927c.307-1.346-.536-2.686-1.883-2.992-1.349-.307-2.687.537-2.992 1.883l-.666 2.927c-.307 1.346.536 2.686 1.883 2.992 1.345.306 2.685-.536 2.992-1.883z"/><path d="m229.2 155.733c-1.07.86-1.23 2.44-.36 3.51.868 1.091 2.459 1.232 3.51.37 1.043-.842 1.256-2.423.37-3.52-.84-1.03-2.491-1.21-3.52-.36z"/><path d="m130.347 74.445c-.24-1.161-1.263-1.993-2.448-1.993h-45.808c-1.381 0-2.5 1.119-2.5 2.5v38.837c0 1.355 1.079 2.463 2.434 2.499 11.703.311 22.225 6.398 28.402 15.71.463.698 1.245 1.118 2.083 1.118h20.657c1.381 0 2.5-1.119 2.5-2.5v-30.238c0-.17-.018-.34-.052-.507zm-36.372 35.352h9.449c2.481 0 4.5 2.019 4.5 4.5v7.241c-6.446-5.769-14.672-9.353-23.333-10.109v-20.95h2.384c2.481 0 4.5 2.019 4.5 4.5v12.318c0 1.38 1.119 2.5 2.5 2.5zm19.846 18.319c-.279-.389-.594-.787-.897-1.182v-12.638c0-5.238-4.262-9.5-9.5-9.5h-6.949v-9.818c0-5.238-4.262-9.5-9.5-9.5h-2.384v-8.026h41.272l4.804 23.183v4.591l-10.792-10.792 2.342-2.342c.977-.976.977-2.559 0-3.535-.977-.977-2.559-.977-3.535 0l-8.223 8.223c-.977.976-.977 2.559 0 3.535.977.977 2.559.977 3.535 0l2.345-2.345 14.328 14.328v15.82h-16.846z"/><circle cx="108.569" cy="48.063" r="2.5"/><path d="m95.33 151.541c0-7.863-6.393-14.261-14.25-14.261-7.863 0-14.261 6.397-14.261 14.261s6.397 14.261 14.261 14.261c7.858 0 14.25-6.397 14.25-14.261zm-23.511 0c0-5.106 4.154-9.261 9.261-9.261 5.101 0 9.25 4.154 9.25 9.261s-4.149 9.261-9.25 9.261c-5.106 0-9.261-4.154-9.261-9.261z"/><path d="m165.277 137.291c-7.863 0-14.261 6.393-14.261 14.25 0 7.863 6.397 14.261 14.261 14.261s14.261-6.397 14.261-14.261c0-7.857-6.397-14.25-14.261-14.25zm0 23.511c-5.106 0-9.261-4.154-9.261-9.261 0-5.101 4.154-9.25 9.261-9.25s9.261 4.149 9.261 9.25c0 5.107-4.154 9.261-9.261 9.261z"/><path d="m48.505 201.006c-3.645-1.2-6.491-1.977-8.397-10.186-.62-2.675-4.445-2.668-5.064 0-1.864 8.027-4.463 8.886-8.397 10.187-2.369.782-2.375 4.152 0 4.937 6.535 2.159 7.276 5.352 8.397 10.185.623 2.681 4.442 2.68 5.065 0 1.862-8.027 4.603-8.932 8.397-10.185 2.369-.784 2.374-4.154-.001-4.938zm-10.877 6.832c-.92-1.552-2.199-3.02-4.07-4.303 1.513-1.038 2.868-2.447 4.028-4.533 1.173 2.112 2.508 3.51 3.888 4.497-1.44 1.011-2.731 2.368-3.846 4.339z"/><path d="m171.881 54.988c6.535 2.159 7.276 5.352 8.397 10.185.623 2.681 4.442 2.68 5.065 0 1.862-8.027 4.603-8.932 8.397-10.185 2.369-.783 2.375-4.153 0-4.937-3.645-1.2-6.491-1.977-8.397-10.186-.62-2.675-4.445-2.668-5.064 0-1.864 8.027-4.463 8.886-8.397 10.187-2.371.782-2.376 4.151-.001 4.936zm10.939-6.942c1.173 2.112 2.508 3.51 3.888 4.497-1.439 1.011-2.731 2.368-3.846 4.339-.92-1.552-2.199-3.02-4.07-4.303 1.513-1.039 2.868-2.448 4.028-4.533z"/><path d="m204.774 79.307c6.535 2.159 7.276 5.352 8.397 10.185.623 2.681 4.442 2.68 5.065 0 1.862-8.027 4.603-8.932 8.397-10.185 2.369-.783 2.375-4.153 0-4.937-3.645-1.2-6.491-1.977-8.397-10.186-.62-2.675-4.445-2.668-5.064 0-1.864 8.027-4.463 8.886-8.397 10.187-2.371.782-2.376 4.151-.001 4.936zm10.939-6.942c1.173 2.112 2.508 3.51 3.888 4.497-1.439 1.011-2.731 2.368-3.846 4.339-.92-1.552-2.199-3.02-4.07-4.303 1.513-1.039 2.868-2.448 4.028-4.533z"/><path d="m145.938 112.853h6.471c1.381 0 2.5-1.119 2.5-2.5s-1.119-2.5-2.5-2.5h-6.471c-1.381 0-2.5 1.119-2.5 2.5s1.12 2.5 2.5 2.5z"/><path d="m145.938 122.136h6.471c1.381 0 2.5-1.119 2.5-2.5s-1.119-2.5-2.5-2.5h-6.471c-1.381 0-2.5 1.119-2.5 2.5s1.12 2.5 2.5 2.5z"/><path d="m251.938 174.032h-4.655l-8.263-10.179c-.84-1.03-2.489-1.2-3.52-.36-1.024.827-1.273 2.39-.36 3.52l5.699 7.019h-25.119c-1.375-.005-2.49-1.132-2.49-2.499 0-8.378.001-17.186.001-38.053 0-.004-.001-.007-.001-.01v-7.236c0-1.38 1.12-2.5 2.5-2.5h6.04c1.261 0 2.32.94 2.48 2.19l2.71 22.17c.17 1.36 1.439 2.34 2.79 2.18 1.37-.17 2.34-1.42 2.18-2.78l-2.72-22.17c-.46-3.76-3.66-6.59-7.44-6.59h-6.04c-4.13 0-7.5 3.36-7.5 7.5v.782l-19.8-21.761v-11.102c0-4.136-3.364-7.5-7.5-7.5h-3.23c-4.136 0-7.5 3.364-7.5 7.5v6.768l-22.155-4.007-6.681-32.262c3.933-.222 7.075-3.482 7.075-7.478v-4.11c0-4.13-3.37-7.5-7.5-7.5h-22.37c-1.38 0-2.5 1.12-2.5 2.5s1.12 2.5 2.5 2.5h.021 22.35c1.37 0 2.5 1.13 2.5 2.5v4.11c0 1.38-1.13 2.5-2.5 2.5h-71.37c-1.369 0-2.5-1.12-2.5-2.5v-4.11c0-1.37 1.131-2.5 2.5-2.5h29c1.381 0 2.5-1.12 2.5-2.5s-1.119-2.5-2.5-2.5h-29c-4.13 0-7.5 3.37-7.5 7.5v4.11c0 3.167 1.975 5.872 4.751 6.971v20.519h-11.171c-3.618 0-6.645 2.574-7.347 5.988l-6.719-7.055 3.085-9.193c2.346-7.037-1.601-14.61-8.76-16.67-6.905-1.985-14.467 2.078-16.23 9.51l-7.66 32.35c-.319 1.34.521 2.69 1.86 3.01 1.33.32 2.689-.53 3.01-1.85 0-.01 0-.01 0-.02l7.65-32.34c1.073-4.533 5.684-7.115 9.99-5.86 4.27 1.224 6.886 5.825 5.399 10.28-.143.425-19.338 57.613-20.14 60l-10.021-1.99 2.511-10.61c.326-1.417-.569-2.712-1.86-3.01-1.33-.32-2.69.54-3 1.86l-2.563 10.82c-1.665-.18-2.937 1.222-2.748 2.772l2.87 23.57c.152 1.254 1.218 2.198 2.481 2.198h30.57c1.278 0 2.35-.964 2.486-2.234l2.87-26.86c.231-2.165-2.235-3.571-3.984-2.268l-10.188 7.623-4.48-.888 8.738-26.033 14.678 19.061v11.568c0 3.64 2.606 6.679 6.05 7.357-2.339 10.749 2.057 21.906 11.039 28.282h-61.174c-1.381 0-2.5 1.119-2.5 2.5s1.119 2.5 2.5 2.5h211.648c.007 0 .013.001.019.001 30.101 0 32.436-.001 36.208-.001 1.381 0 2.5-1.119 2.5-2.5s-1.12-2.5-2.5-2.5zm-43.709-39.586v17.182l-19.8-15.378v-23.565zm-42.952-5.414c12.292-.025 22.579 10.185 22.535 22.5-.042 11.626-9.275 22.475-22.488 22.5-12.912 0-22.5-10.42-22.518-22.405-.019-12.839 10.408-22.57 22.471-22.595zm-57.318 16.861h30.432c-.634 2.988-.758 6.084-.37 9.1h-29.694c.377-3.011.254-6.106-.368-9.1zm67.241-51.74c0-1.378 1.121-2.5 2.5-2.5h3.229c1.379 0 2.5 1.122 2.5 2.5v36.755c-2.23-2.007-5.379-3.891-8.229-4.993 0-10.775 0-20.569 0-31.762zm-29.706 7.38 24.706 4.469v18.479c-12.527-2.343-25.426 4.691-30.266 16.413h-33.514c-5.715-13.614-21.139-20.091-34.6-15.24 0-6.807 0-54.276 0-60.97h64.444l7.227 34.896c.207.999 1 1.772 2.003 1.953zm-116.161 38.272c.696.138 1.416-.026 1.985-.45l6.486-4.854-2.021 18.922h-26.109l-2.186-17.953zm18.815-21.177-12.76-16.572 4.397-13.099 8.363 8.782zm5.002 19.765v-46.23c0-1.378 1.121-2.5 2.5-2.5h11.17v38.383c-4.771 2.891-8.816 7.41-11.087 12.847-1.566 0-2.583-1.197-2.583-2.5zm27.824-9.339c12.933-.016 22.627 10.537 22.606 22.478-.003 1.765-.218 3.56-.666 5.356-.001.004-.002.009-.003.014-2.452 10.076-11.413 17.114-21.796 17.13-12.963 0-22.588-10.605-22.557-22.5.033-12.519 10.266-22.452 22.416-22.478zm15.915 44.978c4.779-3.358 8.463-8.22 10.328-14.039h31.922c1.86 5.819 5.543 10.68 10.322 14.039zm95.245-28.574 16.095 12.5v13.575c0 .877.16 1.716.439 2.499h-27.493c8.543-6.087 13.547-17.378 10.959-28.574z"/><path d="m11.58 112.333c1.232.324 2.673-.433 3-1.85.329-1.333-.507-2.7-1.851-3.01-1.33-.32-2.699.53-3.01 1.86-.333 1.355.531 2.694 1.861 3z"/></g></g></svg>