<svg height="512" viewBox="0 0 512 512" width="512" xmlns="http://www.w3.org/2000/svg"><g id="filled_outline" data-name="filled outline"><path d="m452 488h-248a36 36 0 0 1 -36-36 36 36 0 0 1 36-36h248a36 36 0 0 1 36 36 36 36 0 0 1 -36 36z" fill="#a86e09"/><g fill="#cdccc8"><circle cx="204" cy="452" r="28"/><circle cx="327" cy="452" r="28"/><circle cx="452" cy="452" r="28"/></g><path d="m444.11 384h-108.11v-80h103.71a18 18 0 0 1 17.911 16.209l4.4 44a18 18 0 0 1 -17.911 19.791z" fill="#ee9d0d"/><path d="m215.054 384-7.671-206.573a66 66 0 0 0 -18.713-43.64l-44.67-45.787 40-24 61.574 61.574a66 66 0 0 1 19.294 44.47l7.132 213.956z" fill="#d78e0c"/><path d="m144 88-48 296h-40l24-312 33.506-32z" fill="#d78e0c"/><path d="m56 384-27 47.255a37.925 37.925 0 0 0 -5 18.817 37.928 37.928 0 0 0 37.928 37.928h74.072l-48-80 8-24z" fill="#936108"/><path d="m304 256h-65.946a18 18 0 0 0 -17.463 13.634l-14.591 58.366h98z" fill="#dcdbd6"/><path d="m324 256h-20v72h-98l-8.409 33.634a18 18 0 0 0 17.463 22.366h120.946v-116a12 12 0 0 0 -12-12z" fill="#ee9d0d"/><path d="m336 344h64l16-40h-80z" fill="#6699ce"/><path d="m352 416h-112l-8-32h128z" fill="#a86e09"/><path d="m452 408h-89.754l4-16h77.864a26 26 0 0 0 25.871-28.587l-4.4-44a25.92 25.92 0 0 0 -25.871-23.413h-95.71v-28a20.023 20.023 0 0 0 -20-20h-48.529l-2.607-78.223a73.753 73.753 0 0 0 -21.634-49.86l-61.573-61.574c-.023-.022-.05-.038-.073-.061a7.918 7.918 0 0 0 -.942-.795c-.027-.02-.057-.036-.085-.056a7.925 7.925 0 0 0 -.975-.575c-.053-.027-.1-.057-.159-.083a8.081 8.081 0 0 0 -.845-.346l-70.494-24c-.176-.06-.352-.1-.529-.151-.075-.02-.149-.046-.225-.064a7.887 7.887 0 0 0 -1.717-.212c-.049 0-.1 0-.145 0-.235 0-.468.011-.7.032-.072.007-.143.018-.214.026-.2.025-.409.056-.611.1-.086.017-.17.037-.255.057q-.278.064-.547.149c-.092.028-.184.057-.276.089-.172.061-.341.129-.509.2-.09.038-.18.075-.268.116-.178.085-.351.179-.523.276-.069.039-.141.074-.21.116a7.988 7.988 0 0 0 -1.342 1.023c-.01.01-.022.018-.033.028l-33.505 32a8 8 0 0 0 -2.452 5.171l-23.862 310.21-26.11 45.693a45.928 45.928 0 0 0 39.877 68.714h90.072a8 8 0 0 0 0-16h-11.471l-43.776-72.961 6.836-20.509c.015-.044.022-.089.036-.133.067-.214.126-.432.175-.654.02-.088.039-.175.055-.263.013-.067.031-.132.042-.2l45.46-280.335 33.587 34.428a57.892 57.892 0 0 1 16.445 38.35l4.647 125.147-14.206 56.824a26 26 0 0 0 25.224 32.306h10.7l4 16h-25.754a44 44 0 0 0 0 88h248a44 44 0 0 0 0-88zm-212 16h53.084a43.915 43.915 0 0 0 0 56h-55.168a43.915 43.915 0 0 0 0-56zm59 28a28 28 0 1 1 28 28 28.032 28.032 0 0 1 -28-28zm61.916-28h57.168a43.915 43.915 0 0 0 0 56h-57.168a43.915 43.915 0 0 0 0-56zm88.745-102.995 4.4 44a10 10 0 0 1 -9.951 11h-100.11v-24.005h56a8 8 0 0 0 7.428-5.029l13.988-34.971h18.294a9.97 9.97 0 0 1 9.951 9.005zm-45.477-9-9.6 24h-50.584v-24.005zm-184.391-6.186.009-.035 8.551-34.2a9.984 9.984 0 0 1 9.7-7.575h57.947v56h-79.754zm-73.222-228.691-14.121-22.228 32.644 11.113zm-24.7 402.872h-59.943a29.928 29.928 0 0 1 -25.985-44.776l24.7-43.224h24.257l-4.489 13.47a8 8 0 0 0 .729 6.646zm-32.678-104h-24.554l23.1-300.331 24.24-23.15 23.635 37.2zm105.207-247.8-37.6-38.546 25.96-15.58 57.157 57.156a57.811 57.811 0 0 1 16.956 39.081l2.589 77.689h-21.408a25.942 25.942 0 0 0 -19.708 9.059l-2.968-79.929a73.86 73.86 0 0 0 -20.978-48.93zm12.776 243.953a9.938 9.938 0 0 1 -1.819-8.579l6.889-27.574h91.754a8 8 0 0 0 8-8v-64h12a4 4 0 0 1 4 4v108h-112.946a9.939 9.939 0 0 1 -7.882-3.846zm35.07 19.847h107.508l-4 16h-99.508zm-66.246 60a28 28 0 1 1 28 28 28.032 28.032 0 0 1 -28-28zm276 28a28 28 0 1 1 28-28 28.032 28.032 0 0 1 -28 28z"/><circle cx="204" cy="452" r="12"/><circle cx="327" cy="452" r="12"/><circle cx="448" cy="452" r="12"/></g></svg>