<svg id="Layer_3" enable-background="new 0 0 64 64" height="512" viewBox="0 0 64 64" width="512" xmlns="http://www.w3.org/2000/svg"><g><path d="m5 39 7-28-2.368-7.103c-.377-1.133-1.438-1.897-2.632-1.897-1.194 0-2.255.764-2.632 1.897l-2.368 7.103v28z" fill="#f2c351"/><path d="m55 62h-34c-3.314 0-6-2.686-6-6 0-3.314 2.686-6 6-6h34c3.314 0 6 2.686 6 6 0 3.314-2.686 6-6 6z" fill="#534f44"/><g><path d="m33 50h2v3h-2z" fill="#7f786b"/></g><g><path d="m29 50h2v3h-2z" fill="#7f786b"/></g><g><path d="m25 50h2v3h-2z" fill="#7f786b"/></g><g><path d="m45 50h2v3h-2z" fill="#7f786b"/></g><g><path d="m41 50h2v3h-2z" fill="#7f786b"/></g><g><path d="m53 50h2v3h-2z" fill="#7f786b"/></g><g><path d="m37 50h2v3h-2z" fill="#7f786b"/></g><g><path d="m21 50h2v3h-2z" fill="#7f786b"/></g><g><path d="m33 59h2v3h-2z" fill="#7f786b"/></g><g><path d="m29 59h2v3h-2z" fill="#7f786b"/></g><g><path d="m25 59h2v3h-2z" fill="#7f786b"/></g><g><path d="m45 59h2v3h-2z" fill="#7f786b"/></g><g><path d="m41 59h2v3h-2z" fill="#7f786b"/></g><g><path d="m37 59h2v3h-2z" fill="#7f786b"/></g><g><path d="m21 59h2v3h-2z" fill="#7f786b"/></g><g fill="#7f786b"><path d="m59.887 59.473-2.475-2.475-1.415 1.415 2.475 2.475c.548-.39 1.026-.868 1.415-1.415z"/><path d="m57.646 56.999h3.265c.054-.326.089-.658.089-.999 0-.342-.035-.674-.09-1h-3.264z"/><path d="m58.472 51.112-2.623 2.623 1.415 1.415 2.624-2.624c-.391-.546-.869-1.024-1.416-1.414z"/><path d="m16.112 59.472c.389.547.867 1.025 1.414 1.415l2.566-2.566-1.415-1.415z"/><path d="m15 56c0 .341.035.673.09.999h3.91v-2h-3.91c-.055.327-.09.659-.09 1.001z"/><path d="m16.113 52.527 2.565 2.565 1.415-1.415-2.565-2.565c-.548.39-1.026.868-1.415 1.415z"/></g><g><path d="m53 59h2v3h-2z" fill="#7f786b"/></g><g><path d="m49 50h2v3h-2z" fill="#7f786b"/></g><g><path d="m49 59h2v3h-2z" fill="#7f786b"/></g><path d="m55 59h-34c-1.657 0-3-1.343-3-3 0-1.657 1.343-3 3-3h34c1.657 0 3 1.343 3 3 0 1.657-1.343 3-3 3z" fill="#fff"/><g><path d="m21 55h4v2h-4z" fill="#7f786b"/></g><g><path d="m27 55h6v2h-6z" fill="#7f786b"/></g><g><path d="m35 55h6v2h-6z" fill="#7f786b"/></g><g><path d="m43 55h6v2h-6z" fill="#7f786b"/></g><g><path d="m51 55h4v2h-4z" fill="#7f786b"/></g><g><path d="m26 57.999c-1.103 0-2-.897-2-2s.897-2 2-2 2 .897 2 2-.897 2-2 2zm0-2.001v.002z" fill="#625d51"/></g><g><path d="m34 57.999c-1.103 0-2-.897-2-2s.897-2 2-2 2 .897 2 2-.897 2-2 2zm0-2.001v.002z" fill="#625d51"/></g><g><path d="m42 57.999c-1.103 0-2-.897-2-2s.897-2 2-2 2 .897 2 2-.897 2-2 2zm0-2.001v.002z" fill="#625d51"/></g><g><path d="m50 57.999c-1.103 0-2-.897-2-2s.897-2 2-2 2 .897 2 2-.897 2-2 2zm0-2.001v.002z" fill="#625d51"/></g><path d="m27 46h22v4h-22z" fill="#9e968d"/><path d="m10 49h-8v-10h6c1.105 0 2 .895 2 2z" fill="#f7d881"/><path d="m30.78 16.22 2.22-2.22-1-4-4-2-1 2h-3l-.8 1.6 5.222 2.611c.956.478 1.758 1.173 2.358 2.009z" fill="#f2c351"/><path d="m44 42h-22v-12c0-5.523 4.477-10 10-10h10c1.105 0 2 .895 2 2z" fill="#f2c351"/><path d="m26 42h-4v-12c0-2.761 1.119-5.261 2.929-7.071l.071.071h13c1.105 0 2 .895 2 2v8c0 1.105-.895 2-2 2h-9c-1.657 0-3 1.343-3 3z" fill="#c7e2fc"/><path d="m24.929 22.929c1.81-1.81 4.31-2.929 7.071-2.929 0-2.451-1.385-4.693-3.578-5.789l-18.422-9.211 2 6-.206.825 13.206 11.175z" fill="#f7d881"/><path d="m44 46h-22c-1.105 0-2-.895-2-2 0-1.105.895-2 2-2h22z" fill="#625d51"/><path d="m60 46h-16v-10h13c2.761 0 5 2.239 5 5v3c0 1.105-.895 2-2 2z" fill="#f7d881"/><path d="m48 36v-4h8v4" fill="#625d51"/><path d="m50 32v-2c0-2.209 1.791-4 4-4h2v3h-2c-.552 0-1 .448-1 1v2" fill="#cbc3b6"/><g><path d="m6.5 7.998c-.827 0-1.5-.673-1.5-1.499 0-.827.673-1.5 1.5-1.5s1.5.673 1.5 1.5c0 .826-.673 1.499-1.5 1.499zm0-1.999c-.276 0-.5.224-.5.5 0 .275.224.499.5.499.275 0 .5-.224.5-.499 0-.276-.225-.5-.5-.5z" fill="#625d51"/></g><g><path d="m6.5 43.998c-.827 0-1.5-.673-1.5-1.499 0-.827.673-1.5 1.5-1.5s1.5.673 1.5 1.5c0 .826-.673 1.499-1.5 1.499zm0-1.999c-.276 0-.5.224-.5.5 0 .275.224.499.5.499.275 0 .5-.224.5-.499 0-.276-.225-.5-.5-.5z" fill="#625d51"/></g><g><path d="m27.5 18.998c-.827 0-1.5-.673-1.5-1.499 0-.827.673-1.5 1.5-1.5s1.5.673 1.5 1.5c0 .826-.673 1.499-1.5 1.499zm0-1.999c-.276 0-.5.224-.5.5 0 .275.224.499.5.499.275 0 .5-.224.5-.499 0-.276-.225-.5-.5-.5z" fill="#625d51"/></g><path d="m2 35.998h3.75l.5-1.999h-4.25z" fill="#625d51"/><path d="m2 49 2 4h4l2-4" fill="#625d51"/><path d="m4 53v6l2 3 2-3v-6" fill="#9e968d"/><g><path d="m35 37.999h5v1.999h-5z" fill="#7f786b"/></g><g><path d="m46 37.999h2v5.999h-2z" fill="#625d51"/></g><g><path d="m49 37.999h2v5.999h-2z" fill="#625d51"/></g><g><path d="m52 37.999h2v5.999h-2z" fill="#625d51"/></g><path d="m24.929 22.929c-1.81 1.81-2.929 4.31-2.929 7.071v12h4v-4c0-1.657 1.343-3 3-3h5.964c.405-1.346.628-2.772.628-4.25 0-2.847-.82-5.496-2.217-7.75h-8.375z" fill="#ebf7fe"/><g><path d="m57 34.999-.001-3c0-.553-.447-1-1-1h-2v-1.001h2c.553 0 1-.447 1-.999v-3c0-.553-.447-1-1-1h-2c-2.757 0-5 2.242-5 4.999v1.001h-1c-.553 0-1 .447-1 1v3h-2v-13c0-1.654-1.346-3-3-3h-9.069c-.125-.94-.434-1.826-.883-2.633l1.66-1.66c.248-.249.348-.609.263-.95l-1-4c-.071-.283-.262-.521-.523-.651l-4-2c-.057-.029-.118-.031-.178-.048l.005-.019-19.44-5.555c-.549-.306-1.175-.484-1.835-.484-1.627.001-3.066 1.038-3.581 2.581l-2.367 7.103c-.034.101-.051.208-.051.316v27.999s0 0 0 0v9.999c0 .161.047.308.115.443l-.009.005 1.894 3.788v5.766c0 .197.058.39.167.554l2 3c.186.278.498.445.832.445.334 0 .646-.167.832-.444l2-3c.109-.165.167-.357.167-.556v-5.764l1.895-3.789-.009-.005c.068-.135.114-.281.114-.443v-7.999c0-1.654-1.346-3-3-3h-1.718l6.094-24.374 11.12 9.409c-1.558 1.899-2.494 4.325-2.494 6.966v11.184c-1.161.414-2 1.514-2 2.817 0 1.653 1.346 2.998 3 2.998h4v2.001h-5.001c-3.859 0-6.999 3.14-6.999 7.001 0 3.858 3.14 6.998 6.999 6.998h34c3.86 0 7-3.14 7-6.999 0-3.86-3.14-7-7-7h-5v-2.001h10c1.654 0 3-1.346 3-2.999l.001-3c0-3.309-2.692-6-6-6zm1.433 23.018c.186-.316.33-.656.425-1.019h1.04c-.13.637-.384 1.229-.732 1.753zm.425-3.018c-.094-.363-.238-.704-.425-1.019l.733-.733c.347.524.602 1.116.732 1.753h-1.04zm-1.858 1.001c0 1.102-.897 1.998-2 1.998h-5-8-8-8-5c-1.103 0-2-.896-2-1.999 0-1.104.897-2 2-2h5 8 8 8 5c1.103 0 2 .897 2 2.001zm-32 3.998v1h-2v-1zm2 0h2v1h-2zm4 0h2v1h-2zm3.999 0h2.001v1h-2.001zm4.001 0h2v1h-2zm4 0h2v1h-2zm3.999 0h2v1h-2zm4 0h2.001v1h-2.001zm-33.433-6.018c-.186.316-.33.656-.425 1.019h-1.041c.13-.637.384-1.228.732-1.753zm-.425 3.018c.094.363.238.704.425 1.019l-.733.733c-.348-.524-.602-1.116-.732-1.753h1.04zm25.859-4.999v-1h2v1zm-12 0v-1h2v1zm3.999-1h2.001v1h-2.001zm4.001 0h2v1h-2zm-10 0v1h-2v-1zm-4 1h-2v-1h2zm25.999 0v-1h2.001v1zm-1.999 0h-2v-1h2zm-28-1v1c-.739 0-1.424.215-2.018.566l-.734-.734c.79-.523 1.734-.832 2.752-.832zm-2.753 9.167.734-.734c.595.351 1.279.566 2.018.566v1h-.001c-1.016 0-1.96-.309-2.751-.832zm36.753-.168c.74 0 1.424-.215 2.019-.566l.734.734c-.79.524-1.735.832-2.753.832zm2.752-8.166-.734.734c-.595-.351-1.279-.566-2.018-.566v-1c1.017-.001 1.961.308 2.752.832zm-6.752-21.834c0-1.653 1.346-2.999 3-2.999h1v1h-1c-1.103 0-2 .896-2 1.999v1.001h-1zm-2 3.001h6v2h-6zm-6.001-11v18.999h-15.999v-3c0-1.103.897-2 2-2h9c1.654 0 3-1.346 3-3v-7.999c0-1.654-1.345-3-2.999-3h-10.106c1.232-.635 2.625-1 4.105-1h10c.551 0 .999.448.999 1zm-11.858-11.311.751 3.004-1.06 1.06c-.565-.569-1.217-1.063-1.963-1.435l-4.328-2.164.077-.153h2.382c.378 0 .725-.215.894-.554l.553-1.105zm-20.383-6.575 15.808 4.516-.185.37h-2.381c-.379 0-.725.214-.895.553l-.353.706-11.935-5.968zm-7.758 31.885h1.719l-.5 2h-1.219zm1.618 16-1-2h4.764l-1 2zm1.382 8.197-1-1.5v-4.697h2v4.697zm2.999-19.196v6.999h-5.999v-7.999h4.999c.552 0 1 .448 1 1zm-3.78-7h-2.219v-22.838l2.315-6.948c.243-.726.92-1.214 1.685-1.214s1.441.487 1.684 1.213l2.275 6.826zm7.729-23.316-1.237-3.71 16.263 8.133c1.578.788 2.642 2.254 2.935 3.949-2.277.225-4.349 1.151-6.006 2.554l-11.989-10.146.055-.222c.047-.184.04-.379-.021-.558zm10.052 19.316c0-2.306.879-4.406 2.311-6h12.689c.551 0 .999.448.999 1v7.999c0 .552-.448 1-1 1h-9c-2.206 0-4 1.795-4 4v3h-2v-10.999zm-2 14c0-.552.448-1 1-1h21v1.999h-21c-.552 0-1-.448-1-.999zm27 3v1.999h-20v-1.999zm12.999-3.001c0 .552-.448 1-1 1h-14.999v-7.999h12c2.206 0 4 1.794 4 3.999z"/><path d="m6.5 4.999c-.827 0-1.5.673-1.5 1.5 0 .826.673 1.499 1.5 1.499s1.5-.673 1.5-1.499c0-.827-.673-1.5-1.5-1.5zm0 1.999c-.276 0-.5-.224-.5-.499 0-.276.224-.5.5-.5.275 0 .5.224.5.5 0 .275-.225.499-.5.499z"/><path d="m6.5 43.998c.827 0 1.5-.673 1.5-1.499 0-.827-.673-1.5-1.5-1.5s-1.5.673-1.5 1.5c0 .826.673 1.499 1.5 1.499zm0-1.999c.275 0 .5.224.5.5 0 .275-.224.499-.5.499s-.5-.224-.5-.499c0-.276.224-.5.5-.5z"/><path d="m27.5 18.998c.827 0 1.5-.673 1.5-1.499 0-.827-.673-1.5-1.5-1.5s-1.5.673-1.5 1.5c0 .826.673 1.499 1.5 1.499zm0-1.999c.275 0 .5.224.5.5 0 .275-.224.499-.5.499s-.5-.224-.5-.499c0-.276.224-.5.5-.5z"/><path d="m51.722 56.998h3.277v-1.999h-3.277c-.347-.595-.985-1-1.722-1s-1.375.405-1.722 1h-4.556c-.347-.595-.985-1-1.722-1s-1.375.405-1.722 1h-4.556c-.347-.595-.985-1-1.722-1s-1.375.405-1.722 1h-4.556c-.347-.595-.985-1-1.722-1s-1.375.405-1.722 1h-3.278v1.999h3.278c.347.595.985 1 1.722 1s1.375-.405 1.722-1h4.556c.347.595.985 1 1.722 1s1.375-.405 1.722-1h4.556c.347.595.985 1 1.722 1s1.375-.405 1.722-1h4.556c.347.595.985 1 1.722 1s1.375-.405 1.722-1z"/><path d="m35 37.999h5v1.999h-5z"/><path d="m46 37.999h2v5.999h-2z"/><path d="m49 37.999h2v5.999h-2z"/><path d="m52 37.999h2v5.999h-2z"/></g></g></svg>