<svg height="496pt" viewBox="0 0 496 496" width="496pt" xmlns="http://www.w3.org/2000/svg"><path d="m280 200c0-14.9375 10.273438-27.375 24.113281-30.902344-.015625-.371094-.113281-.722656-.113281-1.097656 0-17.671875 14.328125-32 32-32 13.9375 0 25.664062 8.960938 30.054688 21.390625 5.808593-8.078125 15.234374-13.390625 25.945312-13.390625 16.519531 0 29.953125 12.558594 31.65625 28.625 4.800781-2.871094 10.34375-4.625 16.34375-4.625 17.671875 0 32 14.328125 32 32" fill="#ab927a"/><path d="m472 200c0-4.6875-1.0625-9.113281-2.878906-13.121094-4.007813-1.816406-8.433594-2.878906-13.121094-2.878906-6 0-11.542969 1.753906-16.34375 4.625-.792969-7.433594-4.167969-14.039062-9.128906-19.082031-2.414063.777343-4.726563 1.792969-6.871094 3.082031-.367188-3.472656-1.375-6.738281-2.761719-9.792969-3.941406-1.769531-8.269531-2.832031-12.894531-2.832031-10.710938 0-20.136719 5.3125-25.945312 13.390625-2.648438-7.488281-7.984376-13.671875-14.832032-17.4375-.390625.480469-.796875.933594-1.167968 1.4375-.3125-.878906-.742188-1.703125-1.125-2.542969-3.953126-1.785156-8.296876-2.847656-12.929688-2.847656-17.671875 0-32 14.328125-32 32 0 .375.097656.726562.113281 1.097656-8.410156 2.140625-15.464843 7.613282-19.738281 14.902344zm0 0" fill="#c3ad94"/><path d="m248 200v128h224v-96h16v-32zm0 0" fill="#f4b23e"/><path d="m272 312h200v-80h16v-32h-216zm0 0" fill="#f8cd6d"/><path d="m200 280h48v32h-48zm0 0" fill="#656665"/><path d="m424 328h32v32h-32zm0 0" fill="#4f4f4f"/><path d="m256 328h32v32h-32zm0 0" fill="#4f4f4f"/><path d="m24 360v-120l64-88h112v208" fill="#f4b23e"/><path d="m48 344h152v-192h-88l-64 88zm0 0" fill="#f8cd6d"/><path d="m64 264v-24l40-56h56v80zm0 0" fill="#9eeff5"/><path d="m88 264v-24l40-56h32v80zm0 0" fill="#bffdfe"/><path d="m56 424h-48v-64h480v64h-72" fill="#999"/><path d="m56 424h432v-48h-456v48zm0 0" fill="#b3b3b3"/><path d="m152 440c0 26.507812-21.492188 48-48 48s-48-21.492188-48-48 21.492188-48 48-48 48 21.492188 48 48zm0 0" fill="#4f4f4f"/><path d="m416 440c0 26.507812-21.492188 48-48 48s-48-21.492188-48-48 21.492188-48 48-48 48 21.492188 48 48zm0 0" fill="#4f4f4f"/><path d="m120 440c0 8.835938-7.164062 16-16 16s-16-7.164062-16-16 7.164062-16 16-16 16 7.164062 16 16zm0 0" fill="#656665"/><path d="m384 440c0 8.835938-7.164062 16-16 16s-16-7.164062-16-16 7.164062-16 16-16 16 7.164062 16 16zm0 0" fill="#656665"/><path d="m160 104c13.257812 0 24-10.742188 24-24 0-10.855469-7.246094-19.921875-17.136719-22.886719.6875-2.9375 1.136719-5.960937 1.136719-9.113281 0-22.089844-17.910156-40-40-40s-40 17.910156-40 40c0 3.441406.566406 6.726562 1.382812 9.910156-2.878906-1.230468-6.046874-1.910156-9.382812-1.910156-13.257812 0-24 10.742188-24 24s10.742188 24 24 24zm0 0" fill="#51bcf9"/><path d="m112 104c13.257812 0 24-10.742188 24-24 0-10.855469-7.246094-19.921875-17.136719-22.886719.6875-2.9375 1.136719-5.960937 1.136719-9.113281 0-22.089844-17.910156-40-40-40s-40 17.910156-40 40c0 3.441406.566406 6.726562 1.382812 9.910156-2.878906-1.230468-6.046874-1.910156-9.382812-1.910156-13.257812 0-24 10.742188-24 24s10.742188 24 24 24zm0 0" fill="#6ec8fa"/><path d="m464 104c13.257812 0 24-10.742188 24-24 0-10.855469-7.246094-19.921875-17.136719-22.886719.6875-2.9375 1.136719-5.960937 1.136719-9.113281 0-22.089844-17.910156-40-40-40s-40 17.910156-40 40c0 3.441406.566406 6.726562 1.382812 9.910156-2.878906-1.230468-6.046874-1.910156-9.382812-1.910156-13.257812 0-24 10.742188-24 24s10.742188 24 24 24zm0 0" fill="#51bcf9"/><path d="m416 104c13.257812 0 24-10.742188 24-24 0-10.855469-7.246094-19.921875-17.136719-22.886719.6875-2.9375 1.136719-5.960937 1.136719-9.113281 0-22.089844-17.910156-40-40-40s-40 17.910156-40 40c0 3.441406.566406 6.726562 1.382812 9.910156-2.878906-1.230468-6.046874-1.910156-9.382812-1.910156-13.257812 0-24 10.742188-24 24s10.742188 24 24 24zm0 0" fill="#6ec8fa"/><path d="m112 112h-80c-17.648438 0-32-14.351562-32-32s14.351562-32 32-32c0-26.472656 21.527344-48 48-48s48 21.527344 48 48c0 1.398438-.070312 2.816406-.214844 4.257812 9.917969 5.566407 16.214844 16 16.214844 27.742188 0 17.648438-14.351562 32-32 32zm-80-48c-8.824219 0-16 7.175781-16 16s7.175781 16 16 16h80c8.824219 0 16-7.175781 16-16 0-7.054688-4.59375-13.167969-11.433594-15.214844-4.046875-1.210937-6.460937-5.371094-5.496094-9.488281.625-2.679687.929688-5.066406.929688-7.296875 0-17.648438-14.351562-32-32-32s-32 14.351562-32 32c0 2.382812.359375 4.894531 1.136719 7.929688.75 2.941406-.226563 6.070312-2.535157 8.054687-2.304687 1.984375-5.546874 2.496094-8.34375 1.289063-1.992187-.839844-4.097656-1.273438-6.257812-1.273438zm0 0"/><path d="m160 112h-48v-16h48c8.824219 0 16-7.175781 16-16 0-7.054688-4.59375-13.167969-11.433594-15.214844-4.046875-1.210937-6.460937-5.371094-5.496094-9.488281.625-2.679687.929688-5.066406.929688-7.296875 0-17.648438-14.351562-32-32-32-6.992188 0-13.632812 2.207031-19.199219 6.398438l-9.609375-12.796876c8.359375-6.28125 18.320313-9.601562 28.808594-9.601562 26.472656 0 48 21.527344 48 48 0 1.398438-.070312 2.816406-.214844 4.257812 9.917969 5.566407 16.214844 16 16.214844 27.742188 0 17.648438-14.351562 32-32 32zm0 0"/><path d="m416 112h-80c-17.648438 0-32-14.351562-32-32s14.351562-32 32-32c0-26.472656 21.527344-48 48-48s48 21.527344 48 48c0 1.398438-.070312 2.816406-.214844 4.257812 9.917969 5.566407 16.214844 16 16.214844 27.742188 0 17.648438-14.351562 32-32 32zm-80-48c-8.824219 0-16 7.175781-16 16s7.175781 16 16 16h80c8.824219 0 16-7.175781 16-16 0-7.054688-4.59375-13.167969-11.433594-15.214844-4.046875-1.210937-6.460937-5.371094-5.496094-9.488281.625-2.679687.929688-5.066406.929688-7.296875 0-17.648438-14.351562-32-32-32s-32 14.351562-32 32c0 2.382812.359375 4.894531 1.136719 7.929688.75 2.941406-.226563 6.070312-2.535157 8.054687-2.304687 1.984375-5.546874 2.496094-8.34375 1.289063-1.992187-.839844-4.097656-1.273438-6.257812-1.273438zm0 0"/><path d="m464 112h-48v-16h48c8.824219 0 16-7.175781 16-16 0-7.054688-4.59375-13.167969-11.433594-15.214844-4.046875-1.210937-6.460937-5.371094-5.496094-9.488281.625-2.679687.929688-5.066406.929688-7.296875 0-17.648438-14.351562-32-32-32-6.992188 0-13.632812 2.207031-19.199219 6.398438l-9.609375-12.796876c8.359375-6.28125 18.320313-9.601562 28.808594-9.601562 26.472656 0 48 21.527344 48 48 0 1.398438-.070312 2.816406-.214844 4.257812 9.917969 5.566407 16.214844 16 16.214844 27.742188 0 17.648438-14.351562 32-32 32zm0 0"/><path d="m104 496c-30.878906 0-56-25.128906-56-56s25.121094-56 56-56 56 25.128906 56 56-25.121094 56-56 56zm0-96c-22.054688 0-40 17.945312-40 40s17.945312 40 40 40 40-17.945312 40-40-17.945312-40-40-40zm0 0"/><path d="m104 464c-13.230469 0-24-10.769531-24-24s10.769531-24 24-24 24 10.769531 24 24-10.769531 24-24 24zm0-32c-4.40625 0-8 3.585938-8 8s3.59375 8 8 8 8-3.585938 8-8-3.59375-8-8-8zm0 0"/><path d="m368 496c-30.878906 0-56-25.128906-56-56s25.121094-56 56-56 56 25.128906 56 56-25.121094 56-56 56zm0-96c-22.054688 0-40 17.945312-40 40s17.945312 40 40 40 40-17.945312 40-40-17.945312-40-40-40zm0 0"/><path d="m368 464c-13.230469 0-24-10.769531-24-24s10.769531-24 24-24 24 10.769531 24 24-10.769531 24-24 24zm0-32c-4.40625 0-8 3.585938-8 8s3.59375 8 8 8 8-3.585938 8-8-3.59375-8-8-8zm0 0"/><path d="m488 432h-72v-16h64v-48h-464v48h40v16h-48c-4.414062 0-8-3.574219-8-8v-64c0-4.425781 3.585938-8 8-8h480c4.414062 0 8 3.574219 8 8v64c0 4.425781-3.585938 8-8 8zm0 0"/><path d="m152 416h168v16h-168zm0 0"/><path d="m208 360h-16v-200h-99.929688l-60.070312 82.601562v117.398438h-16v-120c0-1.6875.535156-3.335938 1.527344-4.703125l64-88c1.503906-2.074219 3.914062-3.296875 6.472656-3.296875h112c4.414062 0 8 3.574219 8 8zm0 0"/><path d="m160 272h-96c-4.414062 0-8-3.574219-8-8v-24c0-1.664062.519531-3.296875 1.488281-4.648438l40-56c1.503907-2.105468 3.925781-3.351562 6.511719-3.351562h56c4.414062 0 8 3.574219 8 8v80c0 4.425781-3.585938 8-8 8zm-88-16h80v-64h-43.878906l-36.121094 50.558594zm0 0"/><path d="m120 288h48v16h-48zm0 0"/><path d="m200 272h48v16h-48zm0 0"/><path d="m200 304h48v16h-48zm0 0"/><path d="m472 336h-224c-4.414062 0-8-3.574219-8-8v-168h-16v-16h24c4.414062 0 8 3.574219 8 8v40h232c4.414062 0 8 3.574219 8 8v32c0 4.425781-3.585938 8-8 8h-8v88c0 4.425781-3.585938 8-8 8zm-216-16h208v-88c0-4.425781 3.585938-8 8-8h8v-16h-224zm0 0"/><path d="m248 328h16v32h-16zm0 0"/><path d="m280 328h16v32h-16zm0 0"/><path d="m416 328h16v32h-16zm0 0"/><path d="m448 328h16v32h-16zm0 0"/><path d="m432 224h16v104h-16zm0 0"/><path d="m400 200h16v104h-16zm0 0"/><path d="m368 224h16v104h-16zm0 0"/><path d="m336 200h16v104h-16zm0 0"/><path d="m304 224h16v104h-16zm0 0"/><path d="m272 200h16v104h-16zm0 0"/><path d="m480 200h-16c0-13.230469-10.769531-24-24-24-4.257812 0-8.367188 1.167969-12.222656 3.488281-2.34375 1.40625-5.234375 1.511719-7.679688.296875-2.441406-1.210937-4.097656-3.59375-4.386718-6.3125-1.3125-12.242187-11.503907-21.472656-23.710938-21.472656-7.761719 0-14.847656 3.664062-19.449219 10.0625-1.734375 2.425781-4.6875 3.691406-7.621093 3.25-2.953126-.425781-5.425782-2.449219-6.417969-5.257812-3.390625-9.597657-12.441407-16.054688-22.511719-16.054688-13.230469 0-24 10.769531-24 24 .039062-.0625.089844.367188.105469.832031.117187 3.753907-2.386719 7.078125-6.015625 8.007813-10.648438 2.71875-18.089844 12.25-18.089844 23.160156h-16c0-16.152344 9.71875-30.472656 24.273438-36.671875 2.320312-19.863281 19.246093-35.328125 39.726562-35.328125 12.769531 0 24.535156 6.167969 31.953125 16.128906 6.871094-5.207031 15.304687-8.128906 24.046875-8.128906 16.832031 0 31.359375 10.457031 37.160156 25.550781 3.535156-1.023437 7.183594-1.550781 10.839844-1.550781 22.054688 0 40 17.945312 40 40zm0 0"/></svg>