<?xml version="1.0" encoding="iso-8859-1"?>
<!-- Generator: Adobe Illustrator 19.0.0, SVG Export Plug-In . SVG Version: 6.00 Build 0)  -->
<svg version="1.1" id="Capa_1" xmlns="http://www.w3.org/2000/svg" xmlns:xlink="http://www.w3.org/1999/xlink" x="0px" y="0px"
	 viewBox="0 0 511.999 511.999" style="enable-background:new 0 0 511.999 511.999;" xml:space="preserve">
<polygon style="fill:#67D5FF;" points="111.043,214.885 152.459,380.25 235.291,504.5 359.541,400.957 400.957,214.583 "/>
<g>
	<path style="fill:#4DCEFD;" d="M262.244,299.765l-113.673,64.959l3.889,15.526l0.001,0.002l144.956-82.836l-82.643-82.639
		l-31.03,0.033l79.262,79.259C264.692,295.754,264.314,298.582,262.244,299.765z"/>
	<path style="fill:#4DCEFD;" d="M366.913,219.251l-28.236,127.064c-1.161,5.226-8.109,6.353-10.863,1.763l-27.413-45.689
		c-1.658-2.764-5.221-3.695-8.019-2.096l-139.923,79.956v0.001l11.929,17.894c1.727,2.591,5.165,3.402,7.869,1.858l120.124-68.643
		c2.798-1.599,6.361-0.668,8.019,2.096l28.801,48.003c0.781,1.301,1.032,2.852,0.703,4.333l-2.758,12.413
		c-0.397,1.785-1.374,3.389-2.779,4.56l-96.775,80.647c-2.326,1.938-2.816,5.318-1.137,7.837l5.178,7.767
		c1.954,2.93,6.017,3.52,8.722,1.265l106.76-88.967l0,0l10.874-9.061c1.006-0.839,1.706-1.987,1.991-3.266L399.353,221.8
		c0.823-3.702-1.997-7.213-5.789-7.209l-20.873,0.022C369.916,214.615,367.515,216.543,366.913,219.251z"/>
</g>
<polygon style="fill:#DCF3F4;" points="111.043,214.586 183.522,90.334 214.583,131.751 287.064,7.501 400.959,214.583 "/>
<g>
	<path style="fill:#B0CDCF;" d="M220.103,169.624l8.435-14.459c0.955-1.637,0.837-3.687-0.3-5.204l-40.453-53.943
		c-2.024-2.698-6.144-2.461-7.843,0.453l-8.435,14.459c-0.955,1.637-0.837,3.687,0.301,5.203l40.452,53.942
		C214.284,172.775,218.404,172.537,220.103,169.624z"/>
	<polygon style="fill:#B0CDCF;" points="287.064,7.501 271.076,34.909 369.896,214.583 111.043,214.585 111.043,214.586 
		400.959,214.583 	"/>
</g>
<path d="M419.236,207.082h-13.842L293.635,3.886c-1.302-2.367-3.775-3.851-6.477-3.885C287.127,0,287.095,0,287.064,0
	c-2.665,0-5.133,1.415-6.479,3.721l-66.784,114.486l-24.279-32.374c-0.177-0.235-0.367-0.454-0.564-0.662
	c-0.054-0.056-0.111-0.108-0.166-0.163c-0.153-0.151-0.309-0.296-0.472-0.432c-0.065-0.054-0.131-0.106-0.197-0.159
	c-0.167-0.13-0.338-0.251-0.514-0.366c-0.065-0.042-0.129-0.087-0.196-0.127c-0.213-0.129-0.431-0.248-0.654-0.354
	c-0.032-0.015-0.063-0.034-0.095-0.049c-0.245-0.113-0.495-0.209-0.749-0.294c-0.108-0.037-0.219-0.065-0.329-0.096
	c-0.153-0.044-0.306-0.085-0.461-0.118c-0.125-0.027-0.251-0.051-0.378-0.073c-0.158-0.026-0.316-0.045-0.475-0.061
	c-0.113-0.011-0.225-0.026-0.339-0.032c-0.275-0.015-0.551-0.016-0.827-0.001c-0.006,0-0.011-0.001-0.016,0
	c-0.024,0.001-0.047,0.007-0.071,0.008c-0.256,0.017-0.511,0.049-0.766,0.092c-0.076,0.013-0.151,0.029-0.227,0.045
	c-0.21,0.042-0.418,0.094-0.625,0.155c-0.074,0.022-0.149,0.043-0.222,0.067c-0.223,0.073-0.443,0.158-0.66,0.253
	c-0.045,0.02-0.092,0.036-0.137,0.057c-0.257,0.119-0.508,0.252-0.755,0.402c-0.056,0.034-0.108,0.074-0.163,0.11
	c-0.148,0.096-0.298,0.19-0.441,0.297c-0.032,0.024-0.059,0.051-0.09,0.075c-0.08,0.062-0.156,0.129-0.234,0.194
	c-0.146,0.123-0.287,0.248-0.421,0.38c-0.069,0.067-0.136,0.136-0.202,0.206c-0.145,0.153-0.28,0.31-0.41,0.472
	c-0.047,0.058-0.095,0.115-0.14,0.175c-0.181,0.241-0.35,0.49-0.499,0.748l-70.29,120.499H92.763c-4.143,0-7.5,3.357-7.5,7.5
	s3.357,7.5,7.5,7.5h12.35l40.071,159.989c0.007,0.029,0.021,0.055,0.029,0.084c0.164,0.62,0.401,1.231,0.735,1.814
	c0.066,0.115,0.141,0.22,0.211,0.33c0.023,0.035,0.037,0.075,0.06,0.11l82.831,124.25c0.012,0.018,0.026,0.033,0.038,0.05
	c0.111,0.163,0.231,0.32,0.355,0.476c0.034,0.042,0.065,0.088,0.1,0.13c0.158,0.188,0.325,0.37,0.502,0.543
	c0.005,0.005,0.01,0.011,0.015,0.016c0.368,0.357,0.775,0.681,1.222,0.964c0.035,0.022,0.073,0.04,0.109,0.061
	c0.177,0.108,0.356,0.213,0.545,0.308c0.005,0.003,0.01,0.004,0.015,0.006c0.247,0.123,0.502,0.232,0.763,0.327
	c0.116,0.043,0.234,0.073,0.352,0.11c0.143,0.044,0.285,0.091,0.43,0.127c0.151,0.037,0.302,0.063,0.454,0.09
	c0.089,0.016,0.175,0.04,0.265,0.053c0.023,0.003,0.046,0.002,0.068,0.005c0.334,0.045,0.669,0.075,1.002,0.075
	c0.023,0,0.046-0.005,0.07-0.005c0.277-0.002,0.552-0.024,0.825-0.057c0.078-0.01,0.157-0.019,0.235-0.031
	c0.289-0.044,0.575-0.101,0.855-0.178c0.047-0.013,0.093-0.03,0.14-0.044c0.252-0.074,0.5-0.163,0.743-0.263
	c0.061-0.025,0.122-0.048,0.182-0.075c0.265-0.118,0.523-0.251,0.774-0.399c0.064-0.038,0.125-0.079,0.187-0.118
	c0.21-0.133,0.414-0.275,0.611-0.43c0.051-0.04,0.104-0.076,0.154-0.117c0.01-0.009,0.021-0.016,0.032-0.024l124.25-103.543
	c0.026-0.022,0.047-0.049,0.073-0.072c0.282-0.241,0.546-0.497,0.785-0.772c0.023-0.026,0.043-0.054,0.065-0.081
	c0.237-0.28,0.451-0.574,0.642-0.882c0.016-0.026,0.034-0.05,0.05-0.076c0.189-0.314,0.35-0.641,0.491-0.977
	c0.026-0.062,0.052-0.124,0.076-0.186c0.13-0.335,0.238-0.677,0.319-1.027c0.005-0.021,0.014-0.041,0.019-0.062l40.111-180.501
	h12.263c4.143,0,7.5-3.357,7.5-7.5C426.736,210.439,423.378,207.082,419.236,207.082z M356.298,380.974l-49.078-81.796
	l81.796-65.438L356.298,380.974z M280.064,414.958c-3.706-1.852-8.211-0.351-10.063,3.353l-35.639,71.274l-71.206-106.811
	l131.606-75.204l55.041,91.736l-91.769,76.475l25.382-50.761C285.27,421.315,283.768,416.81,280.064,414.958z M120.577,222.082
	h90.896l73.697,73.694l-127.84,73.052L120.577,222.082z M297.973,287.366l-65.286-65.284h146.89L297.973,287.366z M184.304,103.877
	l23.42,31.228l16.389,21.853c1.474,1.965,3.725,3,6.006,3c1.565,0,3.145-0.488,4.494-1.5c3.313-2.485,3.985-7.186,1.5-10.5
	l-12.545-16.727L286.87,22.714l101.404,184.368H124.102L184.304,103.877z"/>
<path d="M59.272,207.084H28.21c-4.143,0-7.5,3.357-7.5,7.5s3.357,7.5,7.5,7.5h31.062c4.143,0,7.5-3.357,7.5-7.5
	S63.415,207.084,59.272,207.084z"/>
<path d="M483.789,207.084h-31.063c-4.142,0-7.5,3.357-7.5,7.5s3.358,7.5,7.5,7.5h31.063c4.143,0,7.5-3.357,7.5-7.5
	S487.932,207.084,483.789,207.084z"/>
<g>
</g>
<g>
</g>
<g>
</g>
<g>
</g>
<g>
</g>
<g>
</g>
<g>
</g>
<g>
</g>
<g>
</g>
<g>
</g>
<g>
</g>
<g>
</g>
<g>
</g>
<g>
</g>
<g>
</g>
</svg>
