<svg id="Capa_1" enable-background="new 0 0 511.934 511.934" height="512" viewBox="0 0 511.934 511.934" width="512" xmlns="http://www.w3.org/2000/svg"><g><g><g><path d="m292.232 191.548 28.205 28.199-278.914 278.856c-7.789 7.787-20.417 7.787-28.205 0-7.789-7.787-7.789-20.412 0-28.199z" fill="#685e68"/><path d="m292.231 191.548-13.276 13.273 11.481 11.479-278.913 278.856c-.192.192-.4.358-.598.541.696 1.023 1.486 2 2.393 2.907 7.789 7.787 20.417 7.787 28.205 0l278.914-278.856z" fill="#554e56"/><g><path d="m255.244 196.345 60.251 60.238-35.523 35.516c-16.638 16.634-43.613 16.634-60.251 0s-16.638-43.604 0-60.238z" fill="#7a6d79"/><path d="m285.495 241.583-35.523 35.516c-8.958 8.956-20.911 13.081-32.635 12.394.756.891 1.543 1.765 2.385 2.606 16.638 16.634 43.613 16.634 60.251 0l35.523-35.516z" fill="#685e68"/><path d="m341.081 11.715c2.006-3.988 6.948-5.465 10.807-3.219 23.459 13.656 51.977 33.293 80.69 61.061 33.222 32.128 55.836 64.629 70.848 90.368 2.29 3.926.699 8.958-3.412 10.897-31.067 14.657-65.887 33.487-102.433 57.705-17.919 11.875-34.481 23.871-49.723 35.711-28.721 22.31-69.513 19.913-95.231-5.8-25.417-25.411-28.184-65.664-6.485-94.315 12.05-15.911 24.236-33.003 36.343-51.303 23.611-35.688 42.876-69.851 58.596-101.105z" fill="#d1a08f"/><path d="m503.427 159.929c-15.011-25.74-37.626-58.243-70.85-90.372-28.713-27.768-57.231-47.405-80.69-61.061-2.168-1.262-4.678-1.348-6.817-.475 18.014 12.118 37.714 27.394 57.507 46.536 17.726 17.143 32.433 34.392 44.576 50.663 17.289 23.166 9.953 56.26-15.503 69.955-20.423 10.987-41.93 23.681-64.069 38.353-17.919 11.875-34.481 23.871-49.723 35.711-17.751 13.788-40.11 18.127-60.675 13.369 25.789 21.727 63.594 22.666 90.675 1.631 15.243-11.84 31.804-23.836 49.723-35.711 36.547-24.22 71.37-43.05 102.438-57.708 4.107-1.938 5.697-6.967 3.408-10.891z" fill="#c68d7a"/></g></g></g><path d="m107.671 233.207 93.458-93.458c2.929-2.929 2.929-7.678 0-10.607s-7.678-2.929-10.606 0l-93.458 93.458c-2.929 2.929-2.929 7.678 0 10.607 2.928 2.929 7.677 2.929 10.606 0zm0-60 93.458-93.458c2.929-2.929 2.929-7.678 0-10.606-2.929-2.929-7.678-2.929-10.606 0l-93.458 93.458c-2.929 2.929-2.929 7.678 0 10.607 2.928 2.928 7.677 2.928 10.606-.001zm111.925-55.032c4.142 0 7.5-3.358 7.5-7.5s-3.358-7.5-7.5-7.5-7.5 3.358-7.5 7.5 3.358 7.5 7.5 7.5zm290.307 37.972c-19.743-33.852-44.005-64.799-72.112-91.981-24.728-23.914-52.389-44.842-82.13-62.152-7.481-4.354-17.403-1.379-21.28 6.331-12.111 24.077-25.381 47.942-39.442 70.933-2.161 3.534-1.048 8.15 2.485 10.312 3.533 2.16 8.15 1.048 10.312-2.485 14.276-23.343 27.749-47.574 40.045-72.02.049-.097.232-.166.333-.107 10.512 6.119 20.744 12.705 30.665 19.721l-56.324 94.285c-2.125 3.556-.964 8.161 2.592 10.285 3.5 2.091 8.139 1.002 10.285-2.592l55.587-93.053c12.745 9.728 24.925 20.185 36.443 31.324 14.825 14.337 28.533 29.768 41.035 46.141l-93.067 55.571c-3.557 2.124-4.718 6.728-2.595 10.285 2.144 3.592 6.78 4.691 10.285 2.594l94.308-56.311c6.97 9.854 13.52 20.019 19.618 30.475.064.109-.049.296-.134.336-35.698 16.842-70.479 36.436-103.376 58.236-17.097 11.33-33.98 23.456-50.182 36.04-25.713 19.973-62.396 17.746-85.328-5.181-22.643-22.639-25.14-58.958-5.809-84.483 12.695-16.763 25.016-34.154 36.619-51.693 2.286-3.454 1.338-8.107-2.117-10.393-3.454-2.285-8.107-1.338-10.393 2.117-11.429 17.274-23.563 34.403-36.067 50.913-12.305 16.247-17.903 36.582-15.616 56.839l-10.132 10.124c-9.458 9.458-14.667 22.038-14.667 35.423 0 3.521.37 6.983 1.073 10.35l-80.352 80.335c-2.929 2.929-2.93 7.677-.001 10.606s7.677 2.93 10.606.001l75.693-75.677c2.108 3.531 4.666 6.826 7.649 9.81 3.061 3.059 6.423 5.638 9.991 7.739l-188.18 188.156c-4.854 4.853-12.75 4.853-17.603 0-4.786-4.787-4.808-12.832-.001-17.593l87.545-87.527c2.929-2.929 2.93-7.677.001-10.606-2.928-2.929-7.677-2.929-10.606-.001l-87.546 87.526c-10.647 10.511-10.636 28.17 0 38.807 10.701 10.702 28.114 10.702 38.816 0l192.915-192.885c3.33.68 6.715 1.03 10.102 1.03 12.832-.001 25.665-4.882 35.434-14.646l10.828-10.829c19.885 1.844 39.816-3.575 56.349-16.416 15.906-12.354 32.481-24.259 49.266-35.382 32.297-21.403 66.443-40.64 101.49-57.174 7.919-3.735 11.102-13.893 6.69-21.458zm-235.229 130.652c-13.69 13.683-35.965 13.683-49.655.002-6.625-6.625-10.273-15.438-10.273-24.817 0-9.378 3.648-18.192 10.271-24.815l3.459-3.457c3.911 11.217 10.316 21.503 18.846 30.031 9.016 9.014 19.758 15.413 31.23 19.178zm17.682 106.913c-4.142 0-7.5 3.358-7.5 7.5s3.358 7.5 7.5 7.5 7.5-3.358 7.5-7.5-3.358-7.5-7.5-7.5zm111.926-115.032-93.458 93.458c-2.929 2.929-2.929 7.678 0 10.607s7.677 2.929 10.606 0l93.458-93.458c2.929-2.929 2.929-7.678 0-10.607-2.928-2.929-7.677-2.929-10.606 0zm0 60-93.458 93.458c-2.929 2.929-2.929 7.678 0 10.607s7.677 2.929 10.606 0l93.458-93.458c2.929-2.929 2.929-7.678 0-10.607-2.928-2.929-7.677-2.929-10.606 0z"/></g></svg>