<svg height="512pt" viewBox="0 0 512.00113 512" width="512pt" xmlns="http://www.w3.org/2000/svg"><path d="m501 267c0 135.308594-109.691406 245-245 245s-245-109.691406-245-245 109.691406-245 245-245 245 109.691406 245 245zm0 0" fill="#69cdff"/><path d="m104.15625 359.707031 11.238281 11.238281c5.015625-10.0625 11.125-19.585937 18.257813-28.40625l-50.058594-50.058593-23.335938 23.332031 13.488282 13.488281c1.945312 1.945313 1.945312 5.128907 0 7.070313l-6.753906 6.757812c-1.945313 1.945313-1.945313 5.125 0 7.070313l16.261718 16.261719c1.945313 1.945312 5.125 1.945312 7.070313 0l6.757812-6.753907c1.945313-1.941406 5.128907-1.941406 7.074219 0zm0 0" fill="#994334"/><path d="m50.121094 327.371094c-1.429688 1.425781-3.746094 1.425781-5.175782 0l-34.671874-34.675782c-13.695313-13.695312-13.695313-35.980468 0-49.679687 13.695312-13.695313 35.980468-13.695313 49.679687 0l10.566406 10.570313 1.011719-4.679688c.535156-2.484375 1.761719-4.742188 3.550781-6.527344 3.183594-3.1875 7.707031-4.519531 12.101563-3.574218 7.101562 1.535156 11.632812 8.554687 10.101562 15.65625l-4.59375 21.292968 1.933594 1.933594c1.429688 1.429688 1.429688 3.746094 0 5.175781zm0 0" fill="#159e97"/><path d="m57.363281 316.625-34.671875-34.671875c-12.316406-12.320313-13.550781-31.582031-3.710937-45.296875-3.136719 1.617188-6.082031 3.734375-8.707031 6.363281-13.699219 13.695313-13.699219 35.980469 0 49.679688l34.671874 34.671875c1.429688 1.425781 3.746094 1.425781 5.171876 0l9.691406-9.6875c-.890625-.035156-1.765625-.382813-2.445313-1.058594zm0 0" fill="#0f9390"/><path d="m388.46875 325.347656c1.945312 1.945313 1.945312 5.125 0 7.070313l-10.121094 10.121093c7.136719 8.824219 13.242188 18.347657 18.261719 28.410157l55.132813-55.132813-23.335938-23.335937-9.53125 9.53125c-1.941406 1.945312-5.125 1.945312-7.070312 0l-10.476563-10.476563c-1.945313-1.945312-5.125-1.945312-7.070313 0l-16.261718 16.261719c-1.945313 1.945313-1.945313 5.128906 0 7.074219zm0 0" fill="#994334"/><path d="m340 388.445312v-7.558593l-.242188.242187c-1.945312 1.945313-1.945312 5.128906 0 7.074219zm0 0" fill="#994334"/><path d="m461.882812 327.371094c1.429688 1.425781 3.746094 1.425781 5.175782 0l34.671875-34.675782c13.695312-13.695312 13.695312-35.980468 0-49.679687-13.699219-13.695313-35.984375-13.695313-49.679688 0l-10.570312 10.570313-1.007813-4.679688c-.535156-2.484375-1.765625-4.742188-3.554687-6.527344-3.183594-3.1875-7.707031-4.519531-12.101563-3.574218-7.101562 1.535156-11.628906 8.554687-10.101562 15.65625l4.597656 21.292968-1.933594 1.933594c-1.429687 1.429688-1.429687 3.746094-.003906 5.175781zm0 0" fill="#159e97"/><path d="m429.957031 279.425781c-1.425781-1.429687-1.425781-3.746093.003907-5.175781l1.933593-1.933594-4.597656-21.292968c-.976563-4.53125.523437-9.023438 3.574219-12.082032-1.949219-.5-4.011719-.574218-6.054688-.132812-7.101562 1.53125-11.628906 8.554687-10.101562 15.652344l4.597656 21.292968-1.933594 1.9375c-1.429687 1.429688-1.429687 3.746094-.003906 5.171875l44.503906 44.507813c1.433594 1.425781 3.746094 1.425781 5.179688 0l5.421875-5.425782zm0 0" fill="#0f9390"/><path d="m350.179688 266c13.117187-18.679688 20.820312-41.4375 20.820312-66 0-15.585938-3.105469-30.445312-8.726562-44h-212.546876c-5.617187 13.554688-8.726562 28.414062-8.726562 44 0 24.5625 7.703125 47.320312 20.820312 66zm0 0" fill="#fff"/><path d="m153.332031 219c0-8.101562 4.789063-15.070312 11.683594-18.277344 0-.242187-.015625-.480468-.015625-.722656 0-15.585938 3.105469-30.445312 8.726562-44h-24c-5.617187 13.554688-8.726562 28.414062-8.726562 44 0 24.5625 7.703125 47.320312 20.820312 66h24.003907c-5.789063-8.242188-10.519531-17.28125-14.003907-26.917969-10.347656-.855469-18.488281-9.511719-18.488281-20.082031zm0 0" fill="#eef6ff"/><path d="m352.632812 316h-13.632812v84c0 2.207031-1.792969 4-4 4h-42c-2.207031 0-4-1.792969-4-4v-84h-129.632812c-37.328126 28.898438-61.363282 74.136719-61.363282 124.996094 0 4.632812.210938 9.214844.601563 13.746094 42.574219 35.730468 97.46875 57.257812 157.394531 57.257812 59.929688 0 114.820312-21.527344 157.394531-57.257812.390625-4.53125.601563-9.113282.601563-13.746094 0-50.859375-24.035156-96.097656-61.363282-124.996094zm0 0" fill="#eef6ff"/><path d="m188.160156 316h-28.792968c-37.328126 28.898438-61.363282 74.136719-61.363282 124.996094 0 4.632812.210938 9.214844.601563 13.746094 7.003906 5.878906 14.351562 11.363281 21.988281 16.441406-1.042969-7.414063-1.59375-14.984375-1.59375-22.683594 0-54.851562 27.355469-103.308594 69.160156-132.5zm0 0" fill="#d9eafc"/><path d="m226 187.5c0 8.558594-6.9375 15.5-15.5 15.5-8.558594 0-15.5-6.941406-15.5-15.5 0-8.5625 6.941406-15.5 15.5-15.5 8.5625 0 15.5 6.9375 15.5 15.5zm0 0" fill="#1a2b63"/><path d="m317 187.5c0 8.558594-6.9375 15.5-15.5 15.5-8.558594 0-15.5-6.941406-15.5-15.5 0-8.5625 6.941406-15.5 15.5-15.5 8.5625 0 15.5 6.9375 15.5 15.5zm0 0" fill="#1a2b63"/><path d="m219.269531 233.890625c-1.980469 0-3.910156-.800781-5.308593-2.199219-1.398438-1.402344-2.199219-3.328125-2.199219-5.300781 0-1.980469.800781-3.910156 2.199219-5.308594 1.398437-1.390625 3.328124-2.191406 5.308593-2.191406 1.972657 0 3.902344.800781 5.300781 2.191406 1.390626 1.398438 2.199219 3.328125 2.199219 5.308594 0 1.972656-.808593 3.898437-2.199219 5.300781-1.398437 1.398438-3.328124 2.199219-5.300781 2.199219zm0 0" fill="#bf7e52"/><path d="m248.492188 247c0-4.140625 3.359374-7.5 7.507812-7.5 4.140625 0 7.5 3.359375 7.5 7.5s-3.359375 7.5-7.507812 7.5c-4.140626 0-7.5-3.359375-7.5-7.5zm22.019531-1.828125c-2.03125-3.609375-.75-8.179687 2.859375-10.210937s8.179687-.75 10.210937 2.859374c2.039063 3.609376.75 8.179688-2.851562 10.210938-1.171875.660156-2.429688.96875-3.671875.96875-2.628906 0-5.167969-1.378906-6.546875-3.828125zm-39.25 2.859375c-3.601563-2.039062-4.882813-6.609375-2.851563-10.21875 2.03125-3.613281 6.601563-4.890625 10.210938-2.851562 3.609375 2.03125 4.890625 6.601562 2.859375 10.210937-1.378907 2.449219-3.917969 3.820313-6.539063 3.820313-1.25 0-2.511718-.3125-3.679687-.960938zm0 0" fill="#bf7e52"/><path d="m292.742188 233.890625c-1.980469 0-3.910157-.800781-5.3125-2.199219-1.390626-1.402344-2.1875-3.328125-2.1875-5.300781 0-1.980469.796874-3.910156 2.1875-5.308594 1.398437-1.390625 3.328124-2.191406 5.3125-2.191406 1.96875 0 3.898437.800781 5.296874 2.191406 1.402344 1.398438 2.203126 3.328125 2.203126 5.308594 0 1.972656-.800782 3.898437-2.203126 5.300781-1.398437 1.398438-3.328124 2.199219-5.296874 2.199219zm0 0" fill="#bf7e52"/><path d="m288 316v84c0 2.75 2.25 5 5 5h42c2.75 0 5-2.25 5-5v-84zm0 0" fill="#fe3745"/><path d="m308 400v-84h-20v84c0 2.75 2.25 5 5 5h20c-2.75 0-5-2.25-5-5zm0 0" fill="#ea2a3d"/><path d="m359.453125 105v-100c0-2.75-2.25-5-5-5h-196.90625c-2.75 0-5 2.25-5 5v100zm0 0" fill="#293d7c"/><path d="m177.097656 105v-100c0-2.75 2.25-5 5-5h-24.550781c-2.75 0-5 2.25-5 5v100zm0 0" fill="#1a2b63"/><path d="m365.453125 132v-23c0-2.75-2.25-5-5-5h-208.90625c-2.75 0-5 2.25-5 5v23zm0 0" fill="#fe3745"/><path d="m171.097656 132v-23c0-2.75 2.25-5 5-5h-24.550781c-2.75 0-5 2.25-5 5v23zm0 0" fill="#ea2a3d"/><path d="m400 152c0 2.75-2.25 5-5 5h-278c-2.75 0-5-2.25-5-5v-16c0-2.75 2.25-5 5-5h278c2.75 0 5 2.25 5 5zm0 0" fill="#2e4c89"/><path d="m136 152v-16c0-2.75 2.25-5 5-5h-24c-2.75 0-5 2.25-5 5v16c0 2.75 2.25 5 5 5h24c-2.75 0-5-2.25-5-5zm0 0" fill="#293d7c"/><path d="m358 312c0 2.75-2.25 5-5 5h-194c-2.75 0-5-2.25-5-5v-42c0-2.75 2.25-5 5-5h194c2.75 0 5 2.25 5 5zm0 0" fill="#ea2a3d"/><path d="m178 312v-5.199219c-.605469 0-1.210938-.34375-1.671875-1.027343l-8.828125-13.148438c-.921875-1.371094-.921875-3.613281 0-4.984375l8.828125-13.148437c.460937-.683594 1.066406-1.027344 1.671875-1.027344v-3.464844c0-2.75 2.25-5 5-5h-24c-2.75 0-5 2.25-5 5v42c0 2.75 2.25 5 5 5h24c-2.75 0-5-2.25-5-5zm0 0" fill="#b7092b"/><path d="m271.5 355.5c0 8.5625-6.9375 15.5-15.5 15.5-8.558594 0-15.5-6.9375-15.5-15.5 0-8.558594 6.941406-15.5 15.5-15.5 8.5625 0 15.5 6.941406 15.5 15.5zm0 0" fill="#293d7c"/><path d="m271.5 412.5c0 8.5625-6.9375 15.5-15.5 15.5-8.558594 0-15.5-6.9375-15.5-15.5 0-8.558594 6.941406-15.5 15.5-15.5 8.5625 0 15.5 6.941406 15.5 15.5zm0 0" fill="#293d7c"/><path d="m271.5 468.5c0 8.5625-6.9375 15.5-15.5 15.5-8.558594 0-15.5-6.9375-15.5-15.5 0-8.558594 6.941406-15.5 15.5-15.5 8.5625 0 15.5 6.941406 15.5 15.5zm0 0" fill="#293d7c"/><path d="m253 355.5c0-6.335938 3.808594-11.773438 9.25-14.175781-1.914062-.84375-4.023438-1.324219-6.25-1.324219-8.558594 0-15.5 6.941406-15.5 15.5 0 8.5625 6.941406 15.5 15.5 15.5 2.226562 0 4.335938-.476562 6.25-1.320312-5.441406-2.40625-9.25-7.84375-9.25-14.179688zm0 0" fill="#1a2b63"/><path d="m253 412.5c0-6.335938 3.808594-11.769531 9.25-14.175781-1.914062-.84375-4.023438-1.324219-6.25-1.324219-8.558594 0-15.5 6.941406-15.5 15.5 0 8.5625 6.941406 15.5 15.5 15.5 2.226562 0 4.335938-.476562 6.25-1.320312-5.441406-2.40625-9.25-7.84375-9.25-14.179688zm0 0" fill="#1a2b63"/><path d="m253 468.5c0-6.335938 3.808594-11.773438 9.25-14.175781-1.914062-.84375-4.023438-1.324219-6.25-1.324219-8.558594 0-15.5 6.941406-15.5 15.5 0 8.5625 6.941406 15.5 15.5 15.5 2.226562 0 4.335938-.476562 6.25-1.320312-5.441406-2.40625-9.25-7.84375-9.25-14.179688zm0 0" fill="#1a2b63"/><path d="m444 209c0 7.179688-5.820312 13-13 13s-13-5.820312-13-13 5.820312-13 13-13 13 5.820312 13 13zm0 0" fill="#fff"/><path d="m122 211c0 7.179688-5.820312 13-13 13s-13-5.820312-13-13 5.820312-13 13-13 13 5.820312 13 13zm0 0" fill="#fff"/><path d="m88 150c0 7.179688-5.820312 13-13 13s-13-5.820312-13-13 5.820312-13 13-13 13 5.820312 13 13zm0 0" fill="#d9eafc"/><path d="m428 111c0 7.179688-5.820312 13-13 13s-13-5.820312-13-13 5.820312-13 13-13 13 5.820312 13 13zm0 0" fill="#d9eafc"/><path d="m122 70c0 7.179688-5.820312 13-13 13s-13-5.820312-13-13 5.820312-13 13-13 13 5.820312 13 13zm0 0" fill="#c3ddf4"/><path d="m193.667969 219c0 11.136719-9.027344 20.167969-20.167969 20.167969-11.136719 0-20.167969-9.03125-20.167969-20.167969s9.03125-20.167969 20.167969-20.167969c11.140625 0 20.167969 9.03125 20.167969 20.167969zm0 0" fill="#ffc987"/><path d="m358.667969 219c0 11.136719-9.027344 20.167969-20.167969 20.167969-11.136719 0-20.167969-9.03125-20.167969-20.167969s9.03125-20.167969 20.167969-20.167969c11.140625 0 20.167969 9.03125 20.167969 20.167969zm0 0" fill="#ffc987"/><g fill="#ff9f60"><path d="m167.496094 287.640625c-.917969 1.371094-.917969 3.613281 0 4.980469l8.832031 13.152344c.917969 1.367187 2.425781 1.367187 3.34375 0l8.832031-13.152344c.917969-1.367188.917969-3.609375 0-4.980469l-8.832031-13.148437c-.917969-1.371094-2.425781-1.371094-3.34375 0zm0 0"/><path d="m206.496094 287.640625c-.917969 1.371094-.917969 3.613281 0 4.980469l8.832031 13.152344c.917969 1.367187 2.425781 1.367187 3.34375 0l8.832031-13.152344c.917969-1.367188.917969-3.609375 0-4.980469l-8.832031-13.148437c-.917969-1.371094-2.425781-1.371094-3.34375 0zm0 0"/><path d="m245.496094 287.640625c-.917969 1.371094-.917969 3.613281 0 4.980469l8.832031 13.152344c.917969 1.367187 2.425781 1.367187 3.34375 0l8.828125-13.152344c.921875-1.367188.921875-3.609375 0-4.980469l-8.828125-13.148437c-.921875-1.371094-2.425781-1.371094-3.34375 0zm0 0"/><path d="m284.5 287.640625c-.921875 1.371094-.921875 3.613281 0 4.980469l8.828125 13.152344c.917969 1.367187 2.425781 1.367187 3.34375 0l8.832031-13.152344c.917969-1.367188.917969-3.609375 0-4.980469l-8.832031-13.148437c-.917969-1.371094-2.425781-1.371094-3.34375 0zm0 0"/><path d="m323.5 287.640625c-.921875 1.371094-.921875 3.613281 0 4.980469l8.828125 13.152344c.917969 1.367187 2.425781 1.367187 3.34375 0l8.832031-13.152344c.917969-1.367188.917969-3.609375 0-4.980469l-8.832031-13.148437c-.917969-1.371094-2.425781-1.371094-3.34375 0zm0 0"/></g></svg>